# xmcd
#
# Track frame offsets:
# 150
# 20240
# 33124
# 51216
# 71386
# 87564
# 102735
# 118683
# 142858
# 162985
# 180029
# 195535
# 212394
# 228813
# 246664
# 264789
# 289203
# 306693
# 321544
# 338110
#
# Disc length: 4738 seconds
#
# Revision: 0
# Processed by: cddbd v1.5.1PL0 Copyright (c) Steve Scherf et al.
# Submitted via: Audion 3.0.2 (http://www.panic.com/audion/)
#
DISCID=25128014
DTITLE=Divers - compil
DYEAR=1900
DGENRE=
TTITLE0=on va s'aimer
TTITLE1=c'est la fète
TTITLE2=Daddy Dj
TTITLE3=un dos tres
TTITLE4=Live is life
TTITLE5=cloclo
TTITLE6=Le frunkp
TTITLE7=dam dam deo
TTITLE8=paris latino
TTITLE9=try again
TTITLE10=a ecouter
TTITLE11=Jesus he knows me
TTITLE12=taxis
TTITLE13=That the way
TTITLE14=Aint it funny
TTITLE15=More than a woman
TTITLE16=Baby one one time
TTITLE17=Survivor
TTITLE18=Miss california
TTITLE19=Can't get you out of my h
EXTD=
EXTT0=
EXTT1=
EXTT2=
EXTT3=
EXTT4=
EXTT5=
EXTT6=
EXTT7=
EXTT8=
EXTT9=
EXTT10=
EXTT11=
EXTT12=
EXTT13=
EXTT14=
EXTT15=
EXTT16=
EXTT17=
EXTT18=
EXTT19=
PLAYORDER=
